<svg viewBox="0 0 300 300" xmlns="http://www.w3.org/2000/svg"><path d="M20,178 Q55,158 88,168 Q98,132 155,122 Q212,113 245,138 Q255,148 246,158 L242,178 Q232,183 222,170 Q168,188 108,184 Q68,196 28,195 Q13,190 20,178 Z" fill="#8d6e63" stroke="#333" stroke-width="5"/><ellipse cx="130" cy="150" rx="35" ry="14" opacity="0.6" fill="#bcaaa4"/><path d="M118,205 Q112,225 108,240 Q106,250 118,250 Q128,250 128,240 Q130,222 132,206 Z" fill="#5d4037" stroke="#333" stroke-width="5"/><path d="M168,203 Q163,225 160,240 Q159,250 171,250 Q181,250 180,240 Q181,222 182,204 Z" fill="#5d4037" stroke="#333" stroke-width="5"/><ellipse cx="236" cy="150" rx="30" ry="23" fill="#8d6e63" stroke="#333" stroke-width="5"/><polygon points="70,145 88,105 100,148" fill="#a1887f" stroke="#333" stroke-width="5"/><polygon points="105,132 122,90 135,136" fill="#a1887f" stroke="#333" stroke-width="5"/><polygon points="140,124 157,84 170,128" fill="#a1887f" stroke="#333" stroke-width="5"/><polygon points="175,122 190,86 202,126" fill="#a1887f" stroke="#333" stroke-width="5"/><polygon points="22,180 5,160 12,192" fill="#6d4c41" stroke="#333" stroke-width="5"/><polygon points="18,192 2,180 8,205" fill="#6d4c41" stroke="#333" stroke-width="5"/><ellipse cx="246" cy="140" rx="9" ry="11" fill="#ffffff"/><circle cx="248" cy="143" r="4" fill="#3e2723"/><circle cx="250" cy="139" r="1.3" fill="#ffffff"/><ellipse cx="222" cy="155" rx="6" ry="4" opacity="0.6" fill="#d7ccc8"/><ellipse cx="224" cy="134" rx="8" ry="4" opacity="0.3" fill="#ffffff"/></svg>